#N canvas 0 54 1302 712 10;
#X obj 7 11 hsl 128 15 0 127 0 0 empty empty empty -2 -8 0 10 -262144
-1 -1 0 1;
#X obj 23 83 mtof ~;
#X obj 292 180 osc~;
#X obj 333 208 *~;
#X obj 374 170 line~;
#X floatatom 25 114 5 0 0 0 - - -, f 5;
#X obj 496 307 osc~;
#X obj 510 356 *~;
#X obj 545 327 line~;
#X obj 350 536 dac~;
#X obj 42 158 osc~;
#X obj 47 197 *~;
#X obj 109 148 line~;
#X obj 253 155 *;
#X floatatom 282 111 5 0 0 0 - - -, f 5;
#X obj 464 273 *;
#X floatatom 510 245 5 0 0 0 - - -, f 5;
#X msg 387 128 1 10;
#X msg 560 277 1 10;
#X obj 299 6 bng 15 250 50 0 empty empty empty 17 7 0 10 -262144 -1
-1;
#X obj 356 23 delay 10;
#X msg 200 88 0 1000;
#X msg 444 136 0 1200;
#X msg 622 286 0 500;
#X msg 112 83 1 10;
#X obj 129 333 *~ 0.33;
#X obj 263 349 *~ 0.33;
#X obj 446 401 *~ 0.33;
#X connect 0 0 1 0;
#X connect 1 0 5 0;
#X connect 2 0 3 0;
#X connect 3 0 26 0;
#X connect 4 0 3 1;
#X connect 5 0 10 0;
#X connect 5 0 13 0;
#X connect 5 0 15 0;
#X connect 6 0 7 0;
#X connect 7 0 27 0;
#X connect 8 0 7 1;
#X connect 10 0 11 0;
#X connect 11 0 25 0;
#X connect 12 0 11 1;
#X connect 13 0 2 0;
#X connect 14 0 13 1;
#X connect 15 0 6 0;
#X connect 16 0 15 1;
#X connect 17 0 4 0;
#X connect 18 0 8 0;
#X connect 19 0 17 0;
#X connect 19 0 24 0;
#X connect 19 0 18 0;
#X connect 19 0 20 0;
#X connect 20 0 23 0;
#X connect 20 0 22 0;
#X connect 20 0 21 0;
#X connect 21 0 12 0;
#X connect 22 0 4 0;
#X connect 23 0 8 0;
#X connect 24 0 12 0;
#X connect 25 0 9 0;
#X connect 25 0 9 1;
#X connect 26 0 9 0;
#X connect 26 0 9 1;
#X connect 27 0 9 0;
#X connect 27 0 9 1;
